<?xml version="1.0" encoding="UTF-8"?>
<svg id="Layer_2" data-name="Layer 2" xmlns="http://www.w3.org/2000/svg" viewBox="0 0 416.87 111.52">
  <defs>
    <style>
      .cls-1 {
        fill: #edf2f6;
      }

      .cls-2 {
        fill: #00aef7;
      }
    </style>
  </defs>
  <g id="Layer_1-2" data-name="Layer 1">
    <g>
      <path class="cls-1" d="M226.83,110.95h-21.69v-42.11c0-31.27,18.8-49.16,48.26-49.16v21.15c-15.9.18-26.57,9.58-26.57,25.3v44.82Z"/>
      <path class="cls-1" d="M0,111.52v-16.73L68.98,11.63l3.19,9.4H1.27V0h93.84v16.73L26.29,99.89l-3.19-9.4h74.4v21.03H0Z"/>
      <path class="cls-1" d="M159.11,73.66h36.12c.49-2.71.77-5.49.77-8.35,0-3.22-.33-6.36-.96-9.39-1.71-8.28-5.64-15.75-11.13-21.77-8.45-9.25-20.6-15.05-34.12-15.05h0c-12.51,0-23.85,4.98-32.17,13.06-1.94,1.88-3.71,3.93-5.29,6.12-3.74,5.18-6.44,11.16-7.78,17.64-.63,3.03-.96,6.17-.96,9.39,0,2.85.27,5.64.77,8.35,1.85,10.13,6.99,19.1,14.28,25.77,8.22,7.51,19.15,12.09,31.16,12.09h0c13.01,0,24.75-5.38,33.15-14.03,1.58-1.63,3.05-3.38,4.38-5.23l-16.49-11.87c-.69.96-1.44,1.87-2.26,2.73-4.72,4.97-11.38,8.08-18.78,8.08h0c-6.4,0-12.25-2.32-16.76-6.17-3.52-2.99-6.22-6.91-7.74-11.37h33.83ZM125.67,55.92c.8-2.06,1.87-4,3.15-5.77.94-1.3,2.01-2.51,3.17-3.62,4.64-4.4,10.91-7.11,17.81-7.11h0c7.9,0,14.97,3.54,19.72,9.12,1.85,2.18,3.35,4.66,4.4,7.37h-48.25Z"/>
      <g>
        <polygon class="cls-2" points="360.99 83.86 388.27 111.14 416.67 111.14 375.19 69.66 360.99 83.86"/>
        <path class="cls-2" d="M340.56,95.81l11.95-11.95,4.24-4.24,14.2-14.2,4.24-4.24,41.68-41.68h-28.4l-27.48,27.48-4.24,4.24-5.4,5.4-8.8,8.8-4.24,4.24-13.33,13.33-.94.94c-4.6,4.37-10.82,7.06-17.67,7.06h0c-14.18,0-25.67-11.49-25.67-25.67h0c0-14.18,11.49-25.67,25.67-25.67h0c6.07,0,11.65,2.11,16.05,5.64l3.99,3.99,11.91,11.91,14.2-14.2-10.69-10.69-6.41-6.41c-7.9-6.48-18.01-10.38-29.03-10.38h0c-3.04,0-6,.3-8.88.87-21.06,4.13-36.94,22.68-36.94,44.95h0c0,22.33,15.98,40.92,37.12,44.98,2.82.54,5.73.84,8.7.84h0c11.71,0,22.39-4.4,30.5-11.63,1.3-1.16,2.53-2.39,3.69-3.69Z"/>
      </g>
    </g>
  </g>
</svg>